<?xml version="1.0" encoding="UTF-8" standalone="no"?>
<!-- Created with Inkscape (http://www.inkscape.org/) -->
<svg
   xmlns:dc="http://purl.org/dc/elements/1.1/"
   xmlns:cc="http://creativecommons.org/ns#"
   xmlns:rdf="http://www.w3.org/1999/02/22-rdf-syntax-ns#"
   xmlns:svg="http://www.w3.org/2000/svg"
   xmlns="http://www.w3.org/2000/svg"
   xmlns:sodipodi="http://sodipodi.sourceforge.net/DTD/sodipodi-0.dtd"
   xmlns:inkscape="http://www.inkscape.org/namespaces/inkscape"
   width="528"
   height="200"
   id="svg2"
   sodipodi:version="0.32"
   inkscape:version="0.46"
   version="1.0"
   sodipodi:docname="pgocaml-logo.svg"
   inkscape:output_extension="org.inkscape.output.svg.inkscape">
  <defs
     id="defs4">
    <linearGradient
       id="linearGradient3218">
      <stop
         style="stop-color:#adadff;stop-opacity:1;"
         offset="0"
         id="stop3220" />
      <stop
         style="stop-color:#0000ff;stop-opacity:1;"
         offset="1"
         id="stop3222" />
    </linearGradient>
    <inkscape:perspective
       sodipodi:type="inkscape:persp3d"
       inkscape:vp_x="0 : 526.18109 : 1"
       inkscape:vp_y="0 : 1000 : 0"
       inkscape:vp_z="744.09448 : 526.18109 : 1"
       inkscape:persp3d-origin="372.04724 : 350.78739 : 1"
       id="perspective10" />
    <inkscape:perspective
       id="perspective2449"
       inkscape:persp3d-origin="372.04724 : 350.78739 : 1"
       inkscape:vp_z="744.09448 : 526.18109 : 1"
       inkscape:vp_y="0 : 1000 : 0"
       inkscape:vp_x="0 : 526.18109 : 1"
       sodipodi:type="inkscape:persp3d" />
    <inkscape:perspective
       id="perspective2525"
       inkscape:persp3d-origin="372.04724 : 350.78739 : 1"
       inkscape:vp_z="744.09448 : 526.18109 : 1"
       inkscape:vp_y="0 : 1000 : 0"
       inkscape:vp_x="0 : 526.18109 : 1"
       sodipodi:type="inkscape:persp3d" />
    <filter
       inkscape:collect="always"
       id="filter3214">
      <feGaussianBlur
         inkscape:collect="always"
         stdDeviation="1.325"
         id="feGaussianBlur3216" />
    </filter>
    <filter
       inkscape:collect="always"
       id="filter3266">
      <feGaussianBlur
         inkscape:collect="always"
         stdDeviation="1.0985449"
         id="feGaussianBlur3268" />
    </filter>
    <filter
       inkscape:collect="always"
       id="filter3215">
      <feGaussianBlur
         inkscape:collect="always"
         stdDeviation="1.0024359"
         id="feGaussianBlur3217" />
    </filter>
    <filter
       inkscape:collect="always"
       id="filter3317"
       x="-0.13813881"
       width="1.2762776"
       y="-0.060348469"
       height="1.1206969">
      <feGaussianBlur
         inkscape:collect="always"
         stdDeviation="0.79941103"
         id="feGaussianBlur3319" />
    </filter>
    <filter
       inkscape:collect="always"
       id="filter3329">
      <feGaussianBlur
         inkscape:collect="always"
         stdDeviation="1.0024887"
         id="feGaussianBlur3331" />
    </filter>
    <filter
       inkscape:collect="always"
       id="filter3359">
      <feGaussianBlur
         inkscape:collect="always"
         stdDeviation="0.77711446"
         id="feGaussianBlur3361" />
    </filter>
  </defs>
  <sodipodi:namedview
     id="base"
     pagecolor="#ffffff"
     bordercolor="#666666"
     borderopacity="1.0"
     gridtolerance="30"
     guidetolerance="10000"
     objecttolerance="20"
     inkscape:pageopacity="0.0"
     inkscape:pageshadow="2"
     inkscape:zoom="1.9740065"
     inkscape:cx="174.34197"
     inkscape:cy="49.79491"
     inkscape:document-units="px"
     inkscape:current-layer="layer1"
     showgrid="true"
     inkscape:object-paths="false"
     inkscape:object-nodes="false"
     inkscape:window-width="1440"
     inkscape:window-height="878"
     inkscape:window-x="-5"
     inkscape:window-y="-3"
     inkscape:snap-bbox="true"
     inkscape:bbox-paths="false"
     inkscape:bbox-nodes="false">
    <inkscape:grid
       type="xygrid"
       id="grid2383"
       visible="true"
       enabled="true"
       spacingx="3px"
       spacingy="3px"
       empspacing="4" />
  </sodipodi:namedview>
  <metadata
     id="metadata7">
    <rdf:RDF>
      <cc:Work
         rdf:about="">
        <dc:format>image/svg+xml</dc:format>
        <dc:type
           rdf:resource="http://purl.org/dc/dcmitype/StillImage" />
      </cc:Work>
    </rdf:RDF>
  </metadata>
  <g
     inkscape:label="Layer 1"
     inkscape:groupmode="layer"
     id="layer1"
     transform="translate(42.958234,-47.539403)">
    <path
       style="fill:#000000;fill-opacity:1;fill-rule:evenodd;stroke:#000000;stroke-width:1px;stroke-linecap:butt;stroke-linejoin:miter;stroke-opacity:1;opacity:0.80000000000000004;filter:url(#filter3359)"
       d="M 10.541766,125.0394 C 8.410396,132.33812 10.541766,134.08417 10.541766,134.08417 C -7.458234,158.08418 -37.458234,152.08418 -37.458234,152.08418 C -37.458234,152.08418 -1.458234,146.08417 10.541766,125.0394 z"
       id="path3333"
       sodipodi:nodetypes="cccc" />
    <path
       style="fill:#000000;fill-opacity:1;fill-rule:evenodd;stroke:#000000;stroke-width:1px;stroke-linecap:butt;stroke-linejoin:miter;stroke-opacity:1;opacity:0.80000000000000004;filter:url(#filter3317)"
       d="M 221.65715,115.63934 L 234.54598,146.43114 L 230.69786,146.43114 L 224.04177,130.5394 L 221.65715,115.63934 z"
       id="path3275"
       sodipodi:nodetypes="ccccc" />
    <path
       style="fill:#000000;fill-opacity:1;fill-rule:evenodd;stroke:#000000;stroke-width:1px;stroke-linecap:butt;stroke-linejoin:miter;stroke-opacity:1;opacity:0.80000000000000004;filter:url(#filter3329)"
       d="M 35.541766,84.870249 C 37.422363,76.631443 41.541766,72.870249 41.541766,72.870249 C 41.541766,72.870249 59.541766,68.750846 65.541766,72.870249 C 69.571616,78.870249 72.758186,96.870249 71.541766,108.87025 C 68.676094,123.37771 59.810422,134.48219 53.541766,132.87025 L 41.541766,126.87025 C 41.541766,126.87025 35.541766,120.87025 35.541766,114.87025"
       id="path3225"
       sodipodi:nodetypes="ccccccc" />
    <path
       id="path2422"
       style="fill:#000000;fill-opacity:1;fill-rule:evenodd;stroke:#000000;stroke-width:1px;stroke-linecap:butt;stroke-linejoin:miter;stroke-opacity:1;opacity:0.80000000000000004;filter:url(#filter3215)"
       d="M 41.165375,125.7092 C 41.165375,125.7092 53.165375,131.7092 53.165375,131.7092 L 65.165375,145.94801 L 221.62361,145.15508 C 225.2057,124.19986 220.79586,112.57267 217.56566,107.00583 C 215.62361,103.903 209.16538,95.709203 209.16538,95.709203 C 209.16538,95.709203 203.16538,65.709203 197.16538,59.709203 C 191.16538,53.709203 179.16538,53.709203 173.16538,59.709203 C 167.16538,65.709203 161.16538,89.709203 155.16538,89.709203 C 149.16538,89.709203 143.16538,65.709203 137.16538,59.709203 C 131.16538,53.709203 119.3026,53.669998 113.16538,59.709203 C 107.16538,65.709203 101.62361,89.709203 95.623609,89.709203 C 83.623609,89.709203 71.165375,83.709203 41.165375,71.709203 C 29.165375,65.709203 5.1653747,65.709203 -0.83462533,77.709203 C -12.834625,89.709203 -12.834625,143.7092 -12.834625,143.7092 L -6.8346253,215.7092 C -6.8346253,215.7092 -0.83462533,221.7092 5.1653747,215.7092 C -0.83462533,203.7092 -0.83462533,161.7092 -0.83462533,143.7092 C -0.83462533,131.7092 29.165375,137.7092 41.165375,125.7092 z"
       sodipodi:nodetypes="cccccccccccccccccsc" />
    <path
       id="path2531"
       style="fill:#419bff;fill-opacity:1;fill-rule:evenodd;stroke:#000000;stroke-width:1px;stroke-linecap:butt;stroke-linejoin:miter;stroke-opacity:1"
       d="M 38.472362,123.88532 C 38.472362,123.88532 50.472362,129.88532 50.472362,129.88532 L 62.472362,144.12413 L 218.9306,143.3312 C 222.51269,122.37598 218.10285,110.74879 214.87265,105.18195 C 212.9306,102.07912 206.47237,93.88532 206.47237,93.88532 C 206.47237,93.88532 200.47237,63.88532 194.47237,57.88532 C 188.47237,51.88532 176.47237,51.88532 170.47237,57.88532 C 164.47237,63.88532 158.47237,87.88532 152.47237,87.88532 C 146.47237,87.88532 140.47237,63.88532 134.47237,57.88532 C 128.47237,51.88532 116.60959,51.846115 110.47237,57.88532 C 104.47237,63.88532 98.930596,87.88532 92.930596,87.88532 C 80.930596,87.88532 68.472362,81.88532 38.472362,69.88532 C 26.472362,63.88532 2.472362,63.88532 -3.527638,75.88532 C -15.527638,87.88532 -15.527638,141.88532 -15.527638,141.88532 L -9.527638,213.88532 C -9.527638,213.88532 -3.527638,219.88532 2.472362,213.88532 C -3.527638,201.88532 -3.527638,159.88532 -3.527638,141.88532 C -3.527638,129.88532 26.472362,135.88532 38.472362,123.88532 z"
       sodipodi:nodetypes="cccccccccccccccccsc" />
    <path
       sodipodi:type="arc"
       style="fill:#ffffff;fill-opacity:1;stroke:#000000;stroke-opacity:1"
       id="path3226"
       sodipodi:cx="51"
       sodipodi:cy="51"
       sodipodi:rx="3"
       sodipodi:ry="3"
       d="M 54,51 A 3,3 0 1 1 48,51 A 3,3 0 1 1 54,51 z"
       transform="translate(-42.527638,45.88532)" />
    <path
       style="fill:#ffffff;fill-opacity:1;fill-rule:evenodd;stroke:#000000;stroke-width:1px;stroke-linecap:butt;stroke-linejoin:miter;stroke-opacity:1"
       d="M 8.472362,123.07935 C 6.340992,130.37807 8.472362,132.12412 8.472362,132.12412 C -9.527638,156.12413 -39.527638,150.12413 -39.527638,150.12413 C -39.527638,150.12413 -3.527638,144.12412 8.472362,123.07935 z"
       id="path3228"
       sodipodi:nodetypes="cccc" />
    <path
       style="fill:#419aff;fill-opacity:1;fill-rule:evenodd;stroke:#000000;stroke-width:1px;stroke-linecap:butt;stroke-linejoin:miter;stroke-opacity:1"
       d="M 32.472362,81.88532 C 34.352959,73.646514 38.472362,69.88532 38.472362,69.88532 C 38.472362,69.88532 56.472362,65.765917 62.472362,69.88532 C 66.502212,75.88532 69.688782,93.88532 68.472362,105.88532 C 65.60669,120.39278 56.741018,131.49726 50.472362,129.88532 L 38.472362,123.88532 C 38.472362,123.88532 32.472362,117.88532 32.472362,111.88532"
       id="path3230"
       sodipodi:nodetypes="ccccccc" />
    <path
       style="fill:#419aff;fill-opacity:1;fill-rule:evenodd;stroke:#000000;stroke-width:1px;stroke-linecap:butt;stroke-linejoin:miter;stroke-opacity:1"
       d="M 218.04177,112.5394 L 230.9306,143.3312 L 227.08248,143.3312 L 220.42639,127.43946 L 218.04177,112.5394 z"
       id="path3252"
       sodipodi:nodetypes="ccccc" />
    <path
       style="opacity:0.8;fill:#000000;fill-opacity:1;stroke:#000000;stroke-opacity:1;filter:url(#filter3214)"
       d="M 68.448016,145.1019 C 59.91476,145.1019 53.041766,151.9749 53.041766,160.50815 L 53.041766,228.69565 C 53.041766,237.22891 59.914757,244.1019 68.448016,244.1019 L 466.63552,244.1019 C 475.16878,244.1019 482.04177,237.2289 482.04177,228.69565 L 482.04177,160.50815 C 482.04177,151.97489 475.16877,145.1019 466.63552,145.1019 L 68.448016,145.1019 z M 74.010516,157.1019 L 461.07302,157.1019 C 466.03422,157.1019 470.04177,161.10945 470.04177,166.07065 L 470.04177,223.13315 C 470.04177,228.09435 466.03422,232.1019 461.07302,232.1019 L 74.010516,232.1019 C 69.049317,232.1019 65.041766,228.09435 65.041766,223.13315 L 65.041766,166.07065 C 65.041766,161.10945 69.04932,157.1019 74.010516,157.1019 z"
       id="path3204" />
    <path
       style="fill:#2d90ff;fill-opacity:1;stroke:#000000;stroke-opacity:1"
       d="M 65.448016,142.50815 C 56.91476,142.50815 50.041766,149.38115 50.041766,157.9144 L 50.041766,226.1019 C 50.041766,234.63516 56.914757,241.50815 65.448016,241.50815 L 463.63552,241.50815 C 472.16878,241.50815 479.04177,234.63515 479.04177,226.1019 L 479.04177,157.9144 C 479.04177,149.38114 472.16877,142.50815 463.63552,142.50815 L 65.448016,142.50815 z M 71.010516,154.50815 L 458.07302,154.50815 C 463.03422,154.50815 467.04177,158.5157 467.04177,163.4769 L 467.04177,220.5394 C 467.04177,225.5006 463.03422,229.50815 458.07302,229.50815 L 71.010516,229.50815 C 66.049317,229.50815 62.041766,225.5006 62.041766,220.5394 L 62.041766,163.4769 C 62.041766,158.5157 66.04932,154.50815 71.010516,154.50815 z"
       id="rect3201" />
    <text
       xml:space="preserve"
       style="font-size:72px;font-style:normal;font-variant:normal;font-weight:bold;font-stretch:normal;text-align:start;line-height:125%;writing-mode:lr-tb;text-anchor:start;opacity:0.80000000000000004;fill:#000000;fill-opacity:1;stroke:none;stroke-width:1px;stroke-linecap:butt;stroke-linejoin:miter;stroke-opacity:1;filter:url(#filter3266);font-family:Bitstream Vera Sans;-inkscape-font-specification:Bitstream Vera Sans Bold"
       x="68.041763"
       y="220.50815"
       id="text3177"
       sodipodi:linespacing="125%"><tspan
         sodipodi:role="line"
         id="tspan3179"
         x="68.041763"
         y="220.50815">PGO'Caml</tspan></text>
    <text
       xml:space="preserve"
       style="font-size:72px;font-style:normal;font-variant:normal;font-weight:bold;font-stretch:normal;text-align:start;line-height:125%;writing-mode:lr-tb;text-anchor:start;fill:#2d90ff;fill-opacity:1;stroke:#000000;stroke-width:1px;stroke-linecap:butt;stroke-linejoin:miter;stroke-opacity:1;font-family:Bitstream Vera Sans;-inkscape-font-specification:Bitstream Vera Sans Bold"
       x="65.041763"
       y="217.50815"
       id="text2403"
       sodipodi:linespacing="125%"><tspan
         sodipodi:role="line"
         id="tspan2405"
         x="65.041763"
         y="217.50815">PGO'Caml</tspan></text>
  </g>
</svg>
